<svg xmlns="http://www.w3.org/2000/svg" viewBox="0 0 24 24" width="444" height="444" fill="none">
    <path d="M4 4H2" stroke="#FF0000" stroke-width="1.5" stroke-linecap="round" stroke-linejoin="round"/>
    <path d="M6 2H22L20.553 9.896C20.3374 11.0109 19.3346 11.7929 18.2086 11.7929H7.204C6.10399 11.7929 5.11961 11.0587 4.895 9.97364L3.713 4H2" stroke="#FFD700" stroke-width="1.5" stroke-linecap="round" stroke-linejoin="round"/>
    <path d="M7 17.5C7 18.3284 7.67157 19 8.5 19C9.32843 19 10 18.3284 10 17.5C10 16.6716 9.32843 16 8.5 16C7.67157 16 7 16.6716 7 17.5Z" fill="#008000"/>
    <path d="M16 17.5C16 18.3284 16.6716 19 17.5 19C18.3284 19 19 18.3284 19 17.5C19 16.6716 18.3284 16 17.5 16C16.6716 16 16 16.6716 16 17.5Z" fill="#008000"/>
    <path d="M5 2H6.721L8.246 9.97364C8.4706 11.0587 9.45503 11.7929 10.555 11.7929H18.2086C19.3346 11.7929 20.3374 11.0109 20.553 9.896L22 2H5Z" fill="#87CEEB" stroke="#000000" stroke-width="1.5"/>
</svg>
