<svg width="84" height="24" viewBox="0 0 84 24" fill="none" xmlns="http://www.w3.org/2000/svg">
<rect width="84" height="24" rx="12" fill="#D7FFE0"/>
<path d="M26.7192 8.718V9.735H24.1002V11.346H26.1072V12.345H24.1002V15H22.8402V8.718H26.7192ZM32.3197 10.014V15H31.0507V14.37C30.8887 14.586 30.6757 14.757 30.4117 14.883C30.1537 15.003 29.8717 15.063 29.5657 15.063C29.1757 15.063 28.8307 14.982 28.5307 14.82C28.2307 14.652 27.9937 14.409 27.8197 14.091C27.6517 13.767 27.5677 13.383 27.5677 12.939V10.014H28.8277V12.759C28.8277 13.155 28.9267 13.461 29.1247 13.677C29.3227 13.887 29.5927 13.992 29.9347 13.992C30.2827 13.992 30.5557 13.887 30.7537 13.677C30.9517 13.461 31.0507 13.155 31.0507 12.759V10.014H32.3197ZM34.8229 8.34V15H33.5629V8.34H34.8229ZM37.3278 8.34V15H36.0678V8.34H37.3278ZM44.9922 8.718V9.735H43.3182V15H42.0582V9.735H40.3842V8.718H44.9922ZM46.5505 9.42C46.3285 9.42 46.1425 9.351 45.9925 9.213C45.8485 9.069 45.7765 8.892 45.7765 8.682C45.7765 8.472 45.8485 8.298 45.9925 8.16C46.1425 8.016 46.3285 7.944 46.5505 7.944C46.7725 7.944 46.9555 8.016 47.0995 8.16C47.2495 8.298 47.3245 8.472 47.3245 8.682C47.3245 8.892 47.2495 9.069 47.0995 9.213C46.9555 9.351 46.7725 9.42 46.5505 9.42ZM47.1715 10.014V15H45.9115V10.014H47.1715ZM54.6084 9.942C55.2204 9.942 55.7124 10.131 56.0844 10.509C56.4624 10.881 56.6514 11.403 56.6514 12.075V15H55.3914V12.246C55.3914 11.856 55.2924 11.559 55.0944 11.355C54.8964 11.145 54.6264 11.04 54.2844 11.04C53.9424 11.04 53.6694 11.145 53.4654 11.355C53.2674 11.559 53.1684 11.856 53.1684 12.246V15H51.9084V12.246C51.9084 11.856 51.8094 11.559 51.6114 11.355C51.4134 11.145 51.1434 11.04 50.8014 11.04C50.4534 11.04 50.1774 11.145 49.9734 11.355C49.7754 11.559 49.6764 11.856 49.6764 12.246V15H48.4164V10.014H49.6764V10.617C49.8384 10.407 50.0454 10.242 50.2974 10.122C50.5554 10.002 50.8374 9.942 51.1434 9.942C51.5334 9.942 51.8814 10.026 52.1874 10.194C52.4934 10.356 52.7304 10.59 52.8984 10.896C53.0604 10.608 53.2944 10.377 53.6004 10.203C53.9124 10.029 54.2484 9.942 54.6084 9.942ZM62.4821 12.399C62.4821 12.579 62.4701 12.741 62.4461 12.885H58.8011C58.8311 13.245 58.9571 13.527 59.1791 13.731C59.4011 13.935 59.6741 14.037 59.9981 14.037C60.4661 14.037 60.7991 13.836 60.9971 13.434H62.3561C62.2121 13.914 61.9361 14.31 61.5281 14.622C61.1201 14.928 60.6191 15.081 60.0251 15.081C59.5451 15.081 59.1131 14.976 58.7291 14.766C58.3511 14.55 58.0541 14.247 57.8381 13.857C57.6281 13.467 57.5231 13.017 57.5231 12.507C57.5231 11.991 57.6281 11.538 57.8381 11.148C58.0481 10.758 58.3421 10.458 58.7201 10.248C59.0981 10.038 59.5331 9.933 60.0251 9.933C60.4991 9.933 60.9221 10.035 61.2941 10.239C61.6721 10.443 61.9631 10.734 62.1671 11.112C62.3771 11.484 62.4821 11.913 62.4821 12.399ZM61.1771 12.039C61.1711 11.715 61.0541 11.457 60.8261 11.265C60.5981 11.067 60.3191 10.968 59.9891 10.968C59.6771 10.968 59.4131 11.064 59.1971 11.256C58.9871 11.442 58.8581 11.703 58.8101 12.039H61.1771Z" fill="#018C0F"/>
</svg>
