<svg width="84" height="24" viewBox="0 0 84 24" fill="none" xmlns="http://www.w3.org/2000/svg">
<rect width="84" height="24" rx="12" fill="#D7FFE0"/>
<path d="M21.1076 8.718V15H19.8476V8.718H21.1076ZM25.1154 9.942C25.7094 9.942 26.1894 10.131 26.5554 10.509C26.9214 10.881 27.1044 11.403 27.1044 12.075V15H25.8444V12.246C25.8444 11.85 25.7454 11.547 25.5474 11.337C25.3494 11.121 25.0794 11.013 24.7374 11.013C24.3894 11.013 24.1134 11.121 23.9094 11.337C23.7114 11.547 23.6124 11.85 23.6124 12.246V15H22.3524V10.014H23.6124V10.635C23.7804 10.419 23.9934 10.251 24.2514 10.131C24.5154 10.005 24.8034 9.942 25.1154 9.942ZM29.7696 11.049V13.461C29.7696 13.629 29.8086 13.752 29.8866 13.83C29.9706 13.902 30.1086 13.938 30.3006 13.938H30.8856V15H30.0936C29.0316 15 28.5006 14.484 28.5006 13.452V11.049H27.9066V10.014H28.5006V8.781H29.7696V10.014H30.8856V11.049H29.7696ZM36.4269 12.399C36.4269 12.579 36.4149 12.741 36.3909 12.885H32.7459C32.7759 13.245 32.9019 13.527 33.1239 13.731C33.3459 13.935 33.6189 14.037 33.9429 14.037C34.4109 14.037 34.7439 13.836 34.9419 13.434H36.3009C36.1569 13.914 35.8809 14.31 35.4729 14.622C35.0649 14.928 34.5639 15.081 33.9699 15.081C33.4899 15.081 33.0579 14.976 32.6739 14.766C32.2959 14.55 31.9989 14.247 31.7829 13.857C31.5729 13.467 31.4679 13.017 31.4679 12.507C31.4679 11.991 31.5729 11.538 31.7829 11.148C31.9929 10.758 32.2869 10.458 32.6649 10.248C33.0429 10.038 33.4779 9.933 33.9699 9.933C34.4439 9.933 34.8669 10.035 35.2389 10.239C35.6169 10.443 35.9079 10.734 36.1119 11.112C36.3219 11.484 36.4269 11.913 36.4269 12.399ZM35.1219 12.039C35.1159 11.715 34.9989 11.457 34.7709 11.265C34.5429 11.067 34.2639 10.968 33.9339 10.968C33.6219 10.968 33.3579 11.064 33.1419 11.256C32.9319 11.442 32.8029 11.703 32.7549 12.039H35.1219ZM38.6066 10.788C38.7686 10.524 38.9786 10.317 39.2366 10.167C39.5006 10.017 39.8006 9.942 40.1366 9.942V11.265H39.8036C39.4076 11.265 39.1076 11.358 38.9036 11.544C38.7056 11.73 38.6066 12.054 38.6066 12.516V15H37.3466V10.014H38.6066V10.788ZM43.7483 9.942C44.3423 9.942 44.8223 10.131 45.1883 10.509C45.5543 10.881 45.7373 11.403 45.7373 12.075V15H44.4773V12.246C44.4773 11.85 44.3783 11.547 44.1803 11.337C43.9823 11.121 43.7123 11.013 43.3703 11.013C43.0223 11.013 42.7463 11.121 42.5423 11.337C42.3443 11.547 42.2453 11.85 42.2453 12.246V15H40.9853V10.014H42.2453V10.635C42.4133 10.419 42.6263 10.251 42.8843 10.131C43.1483 10.005 43.4363 9.942 43.7483 9.942ZM48.8435 15.081C48.4355 15.081 48.0695 15.009 47.7455 14.865C47.4215 14.715 47.1635 14.514 46.9715 14.262C46.7855 14.01 46.6835 13.731 46.6655 13.425H47.9345C47.9585 13.617 48.0515 13.776 48.2135 13.902C48.3815 14.028 48.5885 14.091 48.8345 14.091C49.0745 14.091 49.2605 14.043 49.3925 13.947C49.5305 13.851 49.5995 13.728 49.5995 13.578C49.5995 13.416 49.5155 13.296 49.3475 13.218C49.1855 13.134 48.9245 13.044 48.5645 12.948C48.1925 12.858 47.8865 12.765 47.6465 12.669C47.4125 12.573 47.2085 12.426 47.0345 12.228C46.8665 12.03 46.7825 11.763 46.7825 11.427C46.7825 11.151 46.8605 10.899 47.0165 10.671C47.1785 10.443 47.4065 10.263 47.7005 10.131C48.0005 9.999 48.3515 9.933 48.7535 9.933C49.3475 9.933 49.8215 10.083 50.1755 10.383C50.5295 10.677 50.7245 11.076 50.7605 11.58H49.5545C49.5365 11.382 49.4525 11.226 49.3025 11.112C49.1585 10.992 48.9635 10.932 48.7175 10.932C48.4895 10.932 48.3125 10.974 48.1865 11.058C48.0665 11.142 48.0065 11.259 48.0065 11.409C48.0065 11.577 48.0905 11.706 48.2585 11.796C48.4265 11.88 48.6875 11.967 49.0415 12.057C49.4015 12.147 49.6985 12.24 49.9325 12.336C50.1665 12.432 50.3675 12.582 50.5355 12.786C50.7095 12.984 50.7995 13.248 50.8055 13.578C50.8055 13.866 50.7245 14.124 50.5625 14.352C50.4065 14.58 50.1785 14.76 49.8785 14.892C49.5845 15.018 49.2395 15.081 48.8435 15.081ZM54.6478 9.942C55.0258 9.942 55.3618 10.026 55.6558 10.194C55.9498 10.356 56.1778 10.599 56.3398 10.923C56.5078 11.241 56.5918 11.625 56.5918 12.075V15H55.3318V12.246C55.3318 11.85 55.2328 11.547 55.0348 11.337C54.8368 11.121 54.5668 11.013 54.2248 11.013C53.8768 11.013 53.6008 11.121 53.3968 11.337C53.1988 11.547 53.0998 11.85 53.0998 12.246V15H51.8398V8.34H53.0998V10.635C53.2618 10.419 53.4778 10.251 53.7478 10.131C54.0178 10.005 54.3178 9.942 54.6478 9.942ZM58.4289 9.42C58.2069 9.42 58.0209 9.351 57.8709 9.213C57.7269 9.069 57.6549 8.892 57.6549 8.682C57.6549 8.472 57.7269 8.298 57.8709 8.16C58.0209 8.016 58.2069 7.944 58.4289 7.944C58.6509 7.944 58.8339 8.016 58.9779 8.16C59.1279 8.298 59.2029 8.472 59.2029 8.682C59.2029 8.892 59.1279 9.069 58.9779 9.213C58.8339 9.351 58.6509 9.42 58.4289 9.42ZM59.0499 10.014V15H57.7899V10.014H59.0499ZM61.5548 10.734C61.7168 10.506 61.9388 10.317 62.2208 10.167C62.5088 10.011 62.8358 9.933 63.2018 9.933C63.6278 9.933 64.0118 10.038 64.3538 10.248C64.7018 10.458 64.9748 10.758 65.1728 11.148C65.3768 11.532 65.4788 11.979 65.4788 12.489C65.4788 12.999 65.3768 13.452 65.1728 13.848C64.9748 14.238 64.7018 14.541 64.3538 14.757C64.0118 14.973 63.6278 15.081 63.2018 15.081C62.8358 15.081 62.5118 15.006 62.2298 14.856C61.9538 14.706 61.7288 14.517 61.5548 14.289V17.376H60.2948V10.014H61.5548V10.734ZM64.1918 12.489C64.1918 12.189 64.1288 11.931 64.0028 11.715C63.8828 11.493 63.7208 11.325 63.5168 11.211C63.3188 11.097 63.1028 11.04 62.8688 11.04C62.6408 11.04 62.4248 11.1 62.2208 11.22C62.0228 11.334 61.8608 11.502 61.7348 11.724C61.6148 11.946 61.5548 12.207 61.5548 12.507C61.5548 12.807 61.6148 13.068 61.7348 13.29C61.8608 13.512 62.0228 13.683 62.2208 13.803C62.4248 13.917 62.6408 13.974 62.8688 13.974C63.1028 13.974 63.3188 13.914 63.5168 13.794C63.7208 13.674 63.8828 13.503 64.0028 13.281C64.1288 13.059 64.1918 12.795 64.1918 12.489Z" fill="#018C0F"/>
</svg>
